<?xml version="1.0" encoding="UTF-8" standalone="no"?>
<!-- Created with Pixodesk SVG (https://pixodesk.com) -->
<svg xmlns="http://www.w3.org/2000/svg" xmlns:pixodesk="https://pixodesk.com" viewBox="0 37 1440 150" text-rendering="geometricPrecision" shape-rendering="geometricPrecision" fill="none">
  <path fill="#69425c" d="M-28.5,195.49C-28.5,195.49,680.5,161.5,721.5,160.5C762.5,159.5,1087.5,138.979,1215.5,117.49C1343.5,96,1382,89.9896,1474.5,8.4896C1567,-73.0105,1440,459.129,1440,459.129L0,459.129L-28.5,195.49z"/>
  <path fill="#533248" d="M0,182C0,182,812.5,165,856.5,161.49C900.5,157.979,1050.5,160.99,1218,141.49C1385.5,121.99,1377.5,115.49,1474.5,68.9896C1571.5,22.4896,1440,507.99,1440,507.99L0,507.99L0,182z"/>
  <rect fill="#412c3a" y="171.99" width="1440" height="336"/>
</svg>